#Comment line ignore any data following # character
#Hierarchical Translation and Rotation (.htr) file
[Header]		#Header keywords are followed by a single value
FileType htr		#Single word string
DataType HTRS		#Translation followed by rotation and scale data
FileVersion 1		#integer
NumSegments 18		#integer
NumFrames 8		#integer
DataFrameRate 60		#integer, data frame rate in this file
EulerRotationOrder ZYX
CalibrationUnits mm
RotationUnits Degrees
GlobalAxisofGravity Y
BoneLengthAxis Y
ScaleFactor 1.000000
[SegmentNames&Hierarchy]
#CHILD	PARENT
Head	Neck
Neck	Chest
Chest	Hips
LeftShoulder	LeftCollar
RightShoulder	RightCollar
LeftElbow	LeftShoulder
RightElbow	RightShoulder
LeftWrist	LeftElbow
RightWrist	RightElbow
Hips	GLOBAL
LeftHip	Hips
RightHip	Hips
LeftKnee	LeftHip
RightKnee	RightHip
LeftAnkle	LeftKnee
RightAnkle	RightKnee
LeftCollar	Chest
RightCollar	Chest
[BasePosition]
#SegmentName Tx, Ty, Tz, Rx, Ry, Rz, BoneLength
Head	0.000003	141.966248	0.000002	-37.745777	-8.179454	6.203664	80.000046
Neck	0.000000	379.566772	0.000000	32.855431	-5.194619	1.823337	141.966263
Chest	0.000000	94.891693	0.000000	0.000002	12.877405	-0.000012	379.566803
LeftShoulder	0.000003	154.023666	0.000005	171.957962	-79.977570	-157.094910	215.219986
RightShoulder	-0.000001	146.408707	-0.000001	20.020029	60.865143	-8.207462	240.139038
LeftElbow	0.000007	215.219971	-0.000011	-24.162848	54.442085	-17.491318	336.440125
RightElbow	-0.000021	240.139038	0.000007	-21.925606	-43.617706	23.102211	322.101532
LeftWrist	-0.000014	336.440094	0.000002	173.178864	-0.531422	156.628021	100.348160
RightWrist	0.000005	322.101501	0.000026	1.868945	1.747480	14.125610	109.739998
Hips	377.886597	1077.530640	704.474976	-179.011169	36.455761	-178.006714	94.891701
LeftHip	95.336761	5.238981	-8.336124	-0.485735	-9.415434	-176.117065	525.916443
RightHip	-96.119095	-4.691877	-4.857316	2.457280	-1.423929	-179.125565	528.302429
LeftKnee	0.000004	525.916443	0.000001	-10.646533	-14.541370	-1.855900	514.711975
RightKnee	-0.000002	528.302429	0.000004	-12.768950	2.118825	-3.063609	521.764099
LeftAnkle	0.000003	514.711975	0.000009	97.965164	-0.000001	0.000000	253.446518
RightAnkle	0.000001	521.764099	-0.000002	99.242271	0.000002	0.000000	256.283173
LeftCollar	19.999998	366.483276	-15.126845	169.660507	-4.312743	90.901894	154.023682
RightCollar	-19.999996	366.483215	-15.126822	171.369568	4.171492	-91.645760	146.408707
#Beginning of Data. Separated by tabs
[Head]
#Fr	Tx	Ty	Tz	Rx	Ry	Rz	SF
225	-0.000005	11.772812	-0.000003	-8.548586	0.784859	4.546921	0.999999
226	-0.000002	11.714478	-0.000006	-8.032080	0.522599	4.806838	0.999999
227	-0.000001	11.653320	-0.000009	-7.702824	0.289465	5.016929	0.999999
228	-0.000004	11.694122	-0.000005	-7.374282	0.028151	5.276143	1.000000
229	-0.000005	12.087433	-0.000013	-7.442259	-0.253877	5.087054	1.000000
230	-0.000004	12.045227	-0.000006	-7.237699	-0.427176	5.094512	1.000000
231	-0.000002	12.199814	-0.000005	-7.137041	-0.562117	5.147559	0.999999
232	-0.000008	12.313629	-0.000010	-7.120988	-0.732553	5.221905	1.000000
[Neck]
#Fr	Tx	Ty	Tz	Rx	Ry	Rz	SF
225	-0.000002	-11.832794	0.000002	1.139009	-0.214076	-1.687852	1.082927
226	-0.000002	-11.886963	-0.000005	1.285044	-0.390745	-1.506552	1.082516
227	-0.000001	-11.908325	0.000002	1.494988	-0.522713	-1.401264	1.082085
228	0.000000	-11.955627	0.000002	1.703822	-0.650972	-1.372582	1.082372
229	-0.000001	-12.003143	-0.000003	2.006571	-0.760346	-1.129779	1.085143
230	-0.000001	-11.974426	-0.000004	2.221175	-0.808150	-1.127479	1.084846
231	-0.000004	-11.968750	0.000004	2.453898	-0.828079	-1.210678	1.085934
232	-0.000001	-11.981812	0.000001	2.723985	-0.844975	-1.328514	1.086736
[Chest]
#Fr	Tx	Ty	Tz	Rx	Ry	Rz	SF
225	-0.000000	-2.958229	0.000000	0.000012	-5.679162	0.000007	0.968826
226	0.000000	-2.971710	-0.000000	0.000016	-5.525332	0.000009	0.968683
227	0.000000	-2.977104	-0.000000	-0.000016	-5.359180	0.000016	0.968627
228	0.000000	-2.988937	-0.000000	-0.000025	-5.136275	0.000015	0.968502
229	-0.000000	-3.000740	-0.000000	-0.000001	-5.038042	0.000011	0.968376
230	-0.000000	-2.993660	-0.000000	-0.000018	-4.960664	0.000010	0.968452
231	-0.000000	-2.992157	-0.000000	-0.000011	-4.873629	0.000020	0.968467
232	0.000000	-2.995392	0.000000	0.000018	-4.719011	0.000008	0.968433
[LeftShoulder]
#Fr	Tx	Ty	Tz	Rx	Ry	Rz	SF
225	-0.000004	15.843475	-0.000004	69.226509	32.138142	41.479996	1.193536
226	-0.000003	15.886658	-0.000004	70.645821	32.472893	43.534618	1.193876
227	-0.000007	15.856339	-0.000001	72.010941	32.742535	45.579098	1.194213
228	-0.000001	15.892410	-0.000001	73.306602	32.929665	47.573872	1.194220
229	-0.000003	15.957092	-0.000009	74.565811	33.082722	49.626873	1.194105
230	0.000000	15.916626	0.000001	75.797852	33.242317	51.727161	1.194102
231	-0.000005	15.863907	0.000006	76.967171	33.386494	53.803368	1.193999
232	-0.000010	15.885971	0.000001	78.100143	33.523911	55.910915	1.193801
[RightShoulder]
#Fr	Tx	Ty	Tz	Rx	Ry	Rz	SF
225	-0.000008	6.879974	0.000002	51.606483	-42.761028	-69.122597	1.109980
226	-0.000004	7.395493	0.000005	51.515232	-42.612110	-69.065895	1.109840
227	-0.000002	7.913956	-0.000014	51.484657	-42.521908	-69.156158	1.109846
228	0.000005	8.396164	0.000003	51.534309	-42.507423	-69.412086	1.109990
229	0.000002	8.829956	0.000003	51.653770	-42.561707	-69.795052	1.110352
230	0.000001	9.229019	0.000005	51.845184	-42.703156	-70.307182	1.110817
231	-0.000004	9.565018	-0.000001	52.110756	-42.911751	-70.930008	1.111302
232	-0.000004	9.833191	-0.000003	52.417271	-43.159031	-71.601723	1.111863
[LeftElbow]
#Fr	Tx	Ty	Tz	Rx	Ry	Rz	SF
225	-0.000001	41.652924	0.000002	-4.211600	-24.179258	3.655629	0.936233
226	-0.000011	41.725983	0.000007	-4.728798	-24.298166	3.848879	0.934332
227	-0.000010	41.798553	0.000013	-5.225432	-24.380541	4.041502	0.932575
228	-0.000009	41.800171	-0.000002	-5.670499	-24.236038	4.183345	0.930865
229	-0.000023	41.775391	0.000009	-6.015712	-23.809652	4.263010	0.929563
230	-0.000006	41.774719	0.000011	-6.290357	-23.147091	4.270275	0.928422
231	-0.000016	41.752625	0.000003	-6.482254	-22.155174	4.185790	0.927585
232	-0.000012	41.709961	0.000025	-6.578084	-20.861946	3.992505	0.927045
[RightElbow]
#Fr	Tx	Ty	Tz	Rx	Ry	Rz	SF
225	0.000030	26.410492	-0.000008	-11.167566	26.072985	1.423691	0.971968
226	0.000028	26.376801	-0.000026	-11.190930	26.311216	1.303463	0.972123
227	0.000028	26.378326	-0.000003	-11.103389	26.409094	1.180555	0.972175
228	0.000007	26.412933	0.000000	-10.910594	26.329996	1.086824	0.972083
229	0.000029	26.500000	-0.000026	-10.644366	26.166134	0.987845	0.971747
230	0.000028	26.611542	-0.000012	-10.309255	25.887217	0.908324	0.971172
231	0.000025	26.727844	-0.000015	-9.913054	25.509916	0.828040	0.970633
232	0.000031	26.862671	-0.000022	-9.495033	25.062813	0.762096	0.970091
[LeftWrist]
#Fr	Tx	Ty	Tz	Rx	Ry	Rz	SF
225	0.000014	-21.453735	-0.000004	82.738869	-87.532547	-91.150726	1.044687
226	0.000011	-22.093445	0.000006	74.750336	-87.713509	-84.418709	1.044313
227	0.000014	-22.684479	-0.000008	66.117584	-87.811737	-77.093338	1.044039
228	0.000019	-23.259705	-0.000002	57.308613	-87.844841	-69.595467	1.044512
229	0.000006	-23.697876	-0.000008	51.997261	-87.756104	-65.469086	1.044572
230	0.000007	-24.081757	0.000007	49.604359	-87.616776	-64.082199	1.044872
231	0.000013	-24.363342	0.000010	49.559647	-87.446251	-64.862106	1.045237
232	-0.000002	-24.544830	0.000010	51.485271	-87.262070	-67.344635	1.045186
[RightWrist]
#Fr	Tx	Ty	Tz	Rx	Ry	Rz	SF
225	-0.000014	-9.029236	-0.000039	-100.851448	81.743774	-98.742287	0.959884
226	0.000017	-8.979370	-0.000027	-100.213737	81.729904	-98.340698	0.959538
227	-0.000014	-8.962311	-0.000034	-99.718414	81.671761	-98.045944	0.959569
228	-0.000017	-8.992096	-0.000027	-99.444313	81.687416	-97.919815	0.959990
229	0.000037	-9.100220	0.000006	-98.970337	81.641457	-97.720345	0.960117
230	0.000014	-9.285370	-0.000056	-98.430267	81.652206	-97.489792	0.960652
231	0.000004	-9.459045	-0.000022	-98.095535	81.630249	-97.396263	0.961496
232	0.000010	-9.633759	-0.000015	-97.718506	81.618675	-97.267250	0.962476
[Hips]
#Fr	Tx	Ty	Tz	Rx	Ry	Rz	SF
225	-1174.023560	21.831665	-545.416748	0.514854	-80.680138	7.777591	0.968825
226	-1174.766479	22.482422	-543.980591	-0.048088	-79.983162	8.367551	0.968683
227	-1175.093628	23.012329	-543.011841	-0.598950	-79.425598	8.913630	0.968626
228	-1174.988892	23.435913	-542.294495	-1.066349	-79.020401	9.329468	0.968502
229	-1174.494263	23.728394	-542.021118	-1.549719	-78.610954	9.731714	0.968377
230	-1173.511719	23.771484	-542.093201	-2.037032	-78.301689	10.090493	0.968452
231	-1172.154785	23.682129	-542.431763	-2.480585	-78.098587	10.368100	0.968468
232	-1170.370972	23.469849	-542.886353	-2.847526	-78.034653	10.518475	0.968433
[LeftHip]
#Fr	Tx	Ty	Tz	Rx	Ry	Rz	SF
225	1.326187	-9.126602	3.645139	23.331142	-0.652225	1.963503	1.011470
226	1.409691	-8.902352	3.745385	23.651457	-0.677052	2.007225	1.011509
227	1.428040	-8.672715	3.737359	23.913208	-0.664912	2.009341	1.011709
228	1.352684	-8.448863	3.634531	23.872923	-0.682035	2.011206	1.012072
229	1.454964	-8.244218	3.704791	23.597567	-0.544549	1.916617	1.012486
230	1.619049	-8.146618	3.767813	23.234848	-0.466891	1.789769	1.012310
231	1.658806	-8.013581	3.823542	22.562721	-0.382195	1.652605	1.012331
232	1.580536	-7.928392	3.708120	21.660648	-0.376401	1.517414	1.012283
[RightHip]
#Fr	Tx	Ty	Tz	Rx	Ry	Rz	SF
225	0.082970	6.407588	-3.905372	5.475068	1.257942	-5.560814	0.975779
226	-0.025589	6.234221	-3.620099	5.410254	1.259944	-5.535091	0.976009
227	-0.055832	6.011400	-3.499978	5.375134	1.263919	-5.538533	0.975997
228	-0.008316	5.783709	-3.391185	5.313852	1.263724	-5.547387	0.976068
229	-0.018806	5.536069	-3.712880	5.240457	1.296567	-5.601421	0.975881
230	-0.170036	5.465383	-3.683549	5.046308	1.286026	-5.688921	0.975644
231	-0.168472	5.351242	-3.788978	4.817837	1.307950	-5.798450	0.975064
232	-0.124222	5.297538	-3.700114	4.523971	1.291397	-5.882750	0.974764
[LeftKnee]
#Fr	Tx	Ty	Tz	Rx	Ry	Rz	SF
225	-0.000019	6.032410	0.000006	-25.697208	6.131752	6.356299	0.968156
226	-0.000003	6.052856	-0.000012	-26.192060	6.738796	5.717106	0.968195
227	-0.000012	6.157898	-0.000015	-26.678848	7.174033	5.253423	0.969867
228	-0.000004	6.349060	-0.000000	-26.750973	7.498435	4.878421	0.970944
229	-0.000014	6.566833	-0.000007	-26.440825	7.506067	4.813817	0.971507
230	-0.000014	6.473877	-0.000006	-26.104286	7.444618	4.826242	0.973664
231	-0.000006	6.484924	0.000010	-25.313978	7.279526	4.913562	0.974477
232	0.000011	6.459961	-0.000006	-24.208654	6.944732	5.074318	0.974879
[RightKnee]
#Fr	Tx	Ty	Tz	Rx	Ry	Rz	SF
225	0.000007	-12.795959	0.000004	1.355158	13.867522	2.944242	0.990217
226	0.000001	-12.674377	-0.000002	1.274992	14.560914	2.852257	0.990037
227	0.000003	-12.680664	-0.000008	1.123533	15.129830	2.715090	0.990105
228	0.000004	-12.643311	-0.000002	0.950645	15.558002	2.560036	0.989943
229	-0.000001	-12.742371	-0.000008	0.758374	15.929547	2.427547	0.990141
230	0.000005	-12.867249	-0.000004	0.674770	16.233963	2.373239	0.990111
231	0.000004	-13.173706	-0.000004	0.621215	16.411522	2.350091	0.990425
232	0.000001	-13.332031	-0.000003	0.583602	16.474636	2.293128	0.990202
[LeftAnkle]
#Fr	Tx	Ty	Tz	Rx	Ry	Rz	SF
225	-0.000008	-16.390472	0.000008	-1.829326	-0.000000	-0.000001	1.020437
226	0.000012	-16.370697	0.000004	-1.997040	0.000000	-0.000001	1.020583
227	-0.000031	-15.510040	0.000014	-1.935475	-0.000000	-0.000001	1.020572
228	-0.000002	-14.955383	-0.000021	-1.848381	0.000000	-0.000002	1.019872
229	-0.000006	-14.665833	0.000013	-1.766977	-0.000000	-0.000001	1.019548
230	-0.000024	-13.555542	0.000024	-1.420356	-0.000001	-0.000001	1.019772
231	-0.000010	-13.137207	-0.000018	-1.145223	-0.000000	-0.000001	1.019907
232	-0.000006	-12.930206	0.000016	-0.897996	-0.000001	-0.000001	1.020381
[RightAnkle]
#Fr	Tx	Ty	Tz	Rx	Ry	Rz	SF
225	-0.000003	-5.104614	-0.000001	-0.642080	0.000001	0.000003	1.006705
226	-0.000006	-5.198364	-0.000001	-0.637665	-0.000000	0.000001	1.007205
227	0.000006	-5.162781	-0.000006	-0.611717	-0.000000	0.000001	1.007621
228	-0.000007	-5.247498	-0.000010	-0.580791	0.000000	0.000002	1.007759
229	-0.000012	-5.144287	0.000004	-0.515592	0.000001	0.000001	1.007927
230	0.000004	-5.159851	0.000000	-0.497805	0.000001	0.000002	1.008124
231	0.000003	-4.995667	-0.000020	-0.462396	-0.000000	-0.000000	1.008167
232	-0.000004	-5.112305	-0.000022	-0.460853	0.000001	0.000001	1.007943
[LeftCollar]
#Fr	Tx	Ty	Tz	Rx	Ry	Rz	SF
225	0.000006	-11.243805	-0.490060	3.064421	1.055189	9.383624	1.102864
226	-0.000006	-11.281555	-0.503156	3.067326	1.107354	9.461635	1.103144
227	0.000008	-11.282806	-0.519201	3.107393	1.163883	9.580986	1.102947
228	-0.000013	-11.304688	-0.539444	3.162287	1.235385	9.713400	1.103182
229	0.000006	-11.326263	-0.559946	3.260702	1.300626	9.872891	1.103601
230	0.000000	-11.268616	-0.582835	3.369159	1.373060	10.046866	1.103339
231	-0.000006	-11.235840	-0.604098	3.478078	1.438786	10.211126	1.102996
232	-0.000002	-11.220734	-0.626202	3.582624	1.512782	10.346539	1.103140
[RightCollar]
#Fr	Tx	Ty	Tz	Rx	Ry	Rz	SF
225	0.000008	-11.243683	-0.490092	-2.173753	-1.513099	-11.886534	1.046992
226	-0.000008	-11.281525	-0.503172	-2.244131	-1.579476	-11.935139	1.050513
227	0.000002	-11.282684	-0.519225	-2.349468	-1.667249	-11.934414	1.054054
228	-0.000015	-11.304626	-0.539457	-2.447739	-1.773739	-11.917357	1.057347
229	-0.000011	-11.326172	-0.560012	-2.562166	-1.886403	-11.862803	1.060310
230	-0.000002	-11.268494	-0.582826	-2.684087	-2.011737	-11.791176	1.063036
231	-0.000002	-11.235901	-0.604062	-2.793960	-2.128457	-11.712622	1.065331
232	0.000002	-11.220642	-0.626192	-2.862906	-2.241957	-11.662072	1.067163
[EndOfFile]
